<?xml version="1.0" standalone="no"?><svg xmlns="http://www.w3.org/2000/svg" viewBox="0 0 1440 320"><path fill="#0099ff" fill-opacity="1" d="M0,288L34.3,272C68.6,256,137,224,206,229.3C274.3,235,343,277,411,256C480,235,549,149,617,144C685.7,139,754,213,823,240C891.4,267,960,245,1029,229.3C1097.1,213,1166,203,1234,218.7C1302.9,235,1371,277,1406,298.7L1440,320L1440,0L1405.7,0C1371.4,0,1303,0,1234,0C1165.7,0,1097,0,1029,0C960,0,891,0,823,0C754.3,0,686,0,617,0C548.6,0,480,0,411,0C342.9,0,274,0,206,0C137.1,0,69,0,34,0L0,0Z"></path></svg>